<svg version="1.1" id="Layer_1" xmlns="http://www.w3.org/2000/svg" xmlns:xlink="http://www.w3.org/1999/xlink" x="0px" y="0px"
	 width="100%" viewBox="0 0 585 427" enable-background="new 0 0 585 427" xml:space="preserve">
<path fill="#000000" opacity="1.000000" stroke="none" 
	d="
M403.000000,428.000000 
	C268.666687,428.000000 134.833405,428.000000 1.000072,428.000000 
	C1.000048,285.666718 1.000048,143.333466 1.000024,1.000148 
	C195.999878,1.000099 390.999756,1.000099 585.999756,1.000049 
	C585.999817,143.333191 585.999817,285.666382 585.999878,427.999786 
	C525.166687,428.000000 464.333344,428.000000 403.000000,428.000000 
M215.435547,245.951950 
	C214.401947,245.556961 213.321289,245.253937 212.342026,244.752762 
	C202.675827,239.805893 193.121429,234.629166 183.344055,229.914291 
	C174.566559,225.681580 165.495438,225.327042 156.397247,229.282593 
	C150.467270,231.860703 144.816452,241.125275 146.145920,246.392670 
	C148.163010,254.384384 153.765488,258.455566 161.270248,261.054260 
	C172.561813,264.964233 184.391953,264.343140 195.941910,266.003784 
	C207.865936,267.718231 219.656296,270.048553 230.780258,274.938507 
	C242.598206,280.133514 254.368561,285.470490 267.598846,286.006775 
	C271.671387,286.171906 275.770111,286.316528 279.794037,286.902130 
	C285.225189,287.692413 290.555786,289.415466 295.999268,289.835999 
	C316.381104,291.410645 335.959625,289.104370 353.383484,277.014099 
	C358.626740,273.375854 359.274902,266.720581 354.407410,263.018402 
	C353.712555,262.489929 353.141449,260.824585 353.463318,260.118713 
	C354.376740,258.115540 356.326630,256.488098 356.895294,254.442230 
	C358.822937,247.506775 361.020203,240.525055 361.746399,233.421158 
	C362.200348,228.980316 360.093933,224.304245 359.363373,219.697723 
	C359.174377,218.505997 359.397064,216.647095 360.180267,215.994934 
	C369.388611,208.327332 375.479187,198.677872 380.139130,187.686249 
	C385.583313,174.844925 386.189697,161.997040 382.901978,148.696365 
	C381.863159,144.493790 379.634888,140.076630 380.203552,136.078033 
	C382.121399,122.591896 380.273193,109.870087 374.731140,97.602966 
	C371.418488,90.270447 363.933167,87.047066 357.141785,90.475540 
	C350.293152,93.932899 343.857391,98.208015 337.264923,102.110527 
	C331.439575,100.803635 325.270172,98.549034 318.993073,98.193161 
	C306.061401,97.460022 293.077271,97.649048 280.573456,102.085426 
	C278.661804,102.763687 276.185089,103.312599 274.421661,102.673782 
	C268.919189,100.680450 263.670685,97.999084 258.254761,95.750610 
	C250.828659,92.667580 242.266510,96.525612 239.927689,103.080376 
	C235.983139,114.135353 237.106781,125.465691 237.103729,136.764999 
	C237.102951,139.615875 237.830841,142.613724 237.182861,145.292191 
	C234.397766,156.804749 232.784958,168.286209 234.997574,180.126328 
	C238.043900,196.427704 245.682404,209.356842 261.177612,216.690887 
	C260.972046,217.595154 260.973999,218.316452 260.660400,218.853531 
	C257.348022,224.526550 254.091339,230.238739 250.526489,235.750763 
	C249.968155,236.614090 247.950546,236.548431 246.600143,236.881729 
	C243.542175,237.636444 239.616882,237.452271 237.617416,239.327362 
	C234.484665,242.265198 232.584335,246.552673 234.808563,251.302307 
	C236.257416,254.396194 237.595596,257.541931 239.613358,262.081970 
	C230.880493,256.311707 223.434174,251.391510 215.435547,245.951950 
z"/>
<path fill="#F6FAFB" opacity="1.000000" stroke="none" 
	d="
M215.711700,246.211639 
	C223.434174,251.391510 230.880493,256.311707 239.613358,262.081970 
	C237.595596,257.541931 236.257416,254.396194 234.808563,251.302307 
	C232.584335,246.552673 234.484665,242.265198 237.617416,239.327362 
	C239.616882,237.452271 243.542175,237.636444 246.600143,236.881729 
	C247.950546,236.548431 249.968155,236.614090 250.526489,235.750763 
	C254.091339,230.238739 257.348022,224.526550 260.660400,218.853531 
	C260.973999,218.316452 260.972046,217.595154 261.177612,216.690887 
	C245.682404,209.356842 238.043900,196.427704 234.997574,180.126328 
	C232.784958,168.286209 234.397766,156.804749 237.182861,145.292191 
	C237.830841,142.613724 237.102951,139.615875 237.103729,136.764999 
	C237.106781,125.465691 235.983139,114.135353 239.927689,103.080376 
	C242.266510,96.525612 250.828659,92.667580 258.254761,95.750610 
	C263.670685,97.999084 268.919189,100.680450 274.421661,102.673782 
	C276.185089,103.312599 278.661804,102.763687 280.573456,102.085426 
	C293.077271,97.649048 306.061401,97.460022 318.993073,98.193161 
	C325.270172,98.549034 331.439575,100.803635 337.264923,102.110527 
	C343.857391,98.208015 350.293152,93.932899 357.141785,90.475540 
	C363.933167,87.047066 371.418488,90.270447 374.731140,97.602966 
	C380.273193,109.870087 382.121399,122.591896 380.203552,136.078033 
	C379.634888,140.076630 381.863159,144.493790 382.901978,148.696365 
	C386.189697,161.997040 385.583313,174.844925 380.139130,187.686249 
	C375.479187,198.677872 369.388611,208.327332 360.180267,215.994934 
	C359.397064,216.647095 359.174377,218.505997 359.363373,219.697723 
	C360.093933,224.304245 362.200348,228.980316 361.746399,233.421158 
	C361.020203,240.525055 358.822937,247.506775 356.895294,254.442230 
	C356.326630,256.488098 354.376740,258.115540 353.463318,260.118713 
	C353.141449,260.824585 353.712555,262.489929 354.407410,263.018402 
	C359.274902,266.720581 358.626740,273.375854 353.383484,277.014099 
	C335.959625,289.104370 316.381104,291.410645 295.999268,289.835999 
	C290.555786,289.415466 285.225189,287.692413 279.794037,286.902130 
	C275.770111,286.316528 271.671387,286.171906 267.598846,286.006775 
	C254.368561,285.470490 242.598206,280.133514 230.780258,274.938507 
	C219.656296,270.048553 207.865936,267.718231 195.941910,266.003784 
	C184.391953,264.343140 172.561813,264.964233 161.270248,261.054260 
	C153.765488,258.455566 148.163010,254.384384 146.145920,246.392670 
	C144.816452,241.125275 150.467270,231.860703 156.397247,229.282593 
	C165.495438,225.327042 174.566559,225.681580 183.344055,229.914291 
	C193.121429,234.629166 202.675827,239.805893 212.342026,244.752762 
	C213.321289,245.253937 214.401947,245.556961 215.711700,246.211639 
M247.584427,103.914490 
	C253.286133,100.719093 258.268402,103.922997 261.411072,107.443474 
	C265.527252,112.054466 266.672882,108.787277 269.317017,105.986458 
	C264.132751,103.952126 259.401093,101.775925 254.464493,100.272995 
	C251.286102,99.305359 247.763947,99.239227 246.233582,104.188698 
	C241.103897,113.535248 242.013733,123.573898 242.060928,134.369171 
	C245.710022,130.895523 246.310547,127.945992 245.201050,123.984253 
	C244.343109,120.920753 244.808121,117.404922 245.092819,114.125595 
	C245.395065,110.644493 246.178421,107.205154 247.584427,103.914490 
M353.873413,235.643478 
	C353.258118,236.586105 352.848541,237.816711 351.995270,238.426163 
	C344.554077,243.741318 336.175598,246.239105 327.157135,244.809097 
	C322.944000,244.141052 318.814850,238.914551 322.138184,233.844757 
	C323.870422,231.202255 325.773010,228.393402 328.277069,226.614838 
	C330.674866,224.911789 333.957184,221.808044 337.160675,225.994308 
	C333.854034,228.991531 330.966919,231.608444 328.344757,233.985229 
	C329.765320,235.131577 330.784912,236.224365 332.030029,236.903839 
	C334.762573,238.394974 337.099335,241.868988 340.895172,238.709518 
	C343.523926,236.521484 346.309509,234.509689 349.121948,232.558868 
	C350.981934,231.268707 353.013611,230.226059 355.292725,228.881210 
	C355.149384,226.603683 354.943298,223.329391 354.749725,220.253342 
	C351.690491,221.368973 349.051788,222.331238 346.413116,223.293503 
	C346.149628,222.850601 345.886169,222.407684 345.622711,221.964767 
	C346.303864,220.932236 346.819427,219.723785 347.695923,218.898819 
	C350.831543,215.947617 354.226593,213.264099 357.274048,210.228836 
	C364.803925,202.729126 371.112213,194.607727 375.483398,184.552353 
	C380.257263,173.570618 380.548492,162.422333 377.589325,151.908386 
	C371.808563,131.369293 357.024658,118.294022 337.684509,109.913841 
	C317.935608,101.356537 298.083099,101.796844 278.415253,109.337532 
	C264.669098,114.607819 254.844986,124.580215 247.662552,137.573257 
	C238.302063,154.506363 237.449326,171.825623 244.046158,189.570877 
	C249.696716,204.770584 260.984711,213.501053 277.049377,216.037292 
	C278.160797,216.212738 279.175049,217.003448 281.004822,217.874908 
	C276.004333,221.476105 271.580109,219.661835 267.003845,219.221695 
	C265.985687,221.094635 264.914368,223.065414 263.925842,225.015503 
	C263.925842,225.015503 263.957062,224.936020 263.284180,225.167114 
	C261.178101,228.561157 258.882507,231.855194 257.022888,235.379303 
	C255.386673,238.480057 255.247894,241.498856 258.478119,244.139999 
	C259.575226,245.037048 259.717499,247.101959 260.296112,248.633209 
	C259.957977,248.875259 259.619843,249.117294 259.281708,249.359344 
	C255.195801,246.725891 251.109909,244.092438 247.934036,242.045517 
	C245.539566,245.562729 243.591995,248.423508 241.413605,251.623337 
	C253.128372,276.268524 306.217133,299.275421 346.718384,274.660675 
	C347.651947,265.578278 347.016296,264.994232 338.360901,266.946228 
	C336.315735,267.407440 334.280487,267.996918 332.207764,268.214905 
	C331.215912,268.319244 330.147217,267.693451 329.113312,267.398346 
	C329.476562,266.396362 329.588257,264.759125 330.245239,264.499023 
	C333.651001,263.150665 337.187683,261.299347 340.694763,261.265198 
	C344.517548,261.227936 346.919434,259.445343 348.456329,256.894287 
	C352.281616,250.544739 355.987335,243.991318 355.649353,235.860168 
	C355.763458,235.319412 355.877563,234.778656 355.991638,234.237915 
	C355.692657,234.000397 355.393677,233.762894 355.094696,233.525391 
	C354.872345,234.081039 354.649994,234.636703 353.873413,235.643478 
M232.476883,264.000427 
	C229.274460,262.133148 226.055420,260.293701 222.872620,258.393555 
	C211.294769,251.481491 199.717468,244.568329 188.162735,237.617706 
	C180.392471,232.943634 171.882050,232.366989 163.155487,233.018204 
	C159.150314,233.317078 152.180511,238.715805 152.395966,242.661880 
	C152.570496,245.858505 154.742294,249.668182 157.226349,251.827805 
	C160.116592,254.340546 164.164291,256.164215 167.969925,256.856689 
	C177.843903,258.653320 187.826614,260.303589 197.828552,260.836273 
	C211.680969,261.574036 224.216888,266.292297 236.816605,271.342590 
	C245.522858,274.832275 254.452591,277.764435 263.282471,280.945770 
	C263.561340,280.252869 263.840240,279.559998 264.119110,278.867096 
	C253.764511,274.076508 243.409897,269.285889 232.476883,264.000427 
M370.684448,109.186790 
	C370.772430,113.499756 370.572906,117.844627 371.046753,122.114777 
	C371.377655,125.096672 372.630280,127.976288 373.471222,130.901581 
	C373.930725,130.770905 374.390259,130.640228 374.849762,130.509552 
	C375.392944,121.015694 374.935181,111.739342 371.124634,102.733467 
	C367.822479,94.929192 364.437622,93.128105 357.012329,97.029312 
	C352.472473,99.414536 348.253998,102.411369 343.191345,105.570168 
	C345.728790,106.659630 347.451965,107.399490 349.728302,108.376846 
	C351.335510,106.577965 352.906586,104.638321 354.663361,102.884666 
	C362.059082,95.501976 366.557465,96.496689 369.612732,106.144554 
	C369.857452,106.917397 369.923157,107.746918 370.684448,109.186790 
z"/>
<path fill="#000000" opacity="1.000000" stroke="none" 
	d="
M263.843018,225.036194 
	C264.914368,223.065414 265.985687,221.094635 267.003845,219.221695 
	C271.580109,219.661835 276.004333,221.476105 281.004822,217.874908 
	C279.175049,217.003448 278.160797,216.212738 277.049377,216.037292 
	C260.984711,213.501053 249.696716,204.770584 244.046158,189.570877 
	C237.449326,171.825623 238.302063,154.506363 247.662552,137.573257 
	C254.844986,124.580215 264.669098,114.607819 278.415253,109.337532 
	C298.083099,101.796844 317.935608,101.356537 337.684509,109.913841 
	C357.024658,118.294022 371.808563,131.369293 377.589325,151.908386 
	C380.548492,162.422333 380.257263,173.570618 375.483398,184.552353 
	C371.112213,194.607727 364.803925,202.729126 357.274048,210.228836 
	C354.226593,213.264099 350.831543,215.947617 347.695923,218.898819 
	C346.819427,219.723785 346.303864,220.932236 345.622711,221.964767 
	C345.886169,222.407684 346.149628,222.850601 346.413116,223.293503 
	C349.051788,222.331238 351.690491,221.368973 354.749725,220.253342 
	C354.943298,223.329391 355.149384,226.603683 355.292725,228.881210 
	C353.013611,230.226059 350.981934,231.268707 349.121948,232.558868 
	C346.309509,234.509689 343.523926,236.521484 340.895172,238.709518 
	C337.099335,241.868988 334.762573,238.394974 332.030029,236.903839 
	C330.784912,236.224365 329.765320,235.131577 328.344757,233.985229 
	C330.966919,231.608444 333.854034,228.991531 337.160675,225.994308 
	C333.957184,221.808044 330.674866,224.911789 328.277069,226.614838 
	C325.773010,228.393402 323.870422,231.202255 322.138184,233.844757 
	C318.814850,238.914551 322.944000,244.141052 327.157135,244.809097 
	C336.175598,246.239105 344.554077,243.741318 351.995270,238.426163 
	C352.848541,237.816711 353.258118,236.586105 354.302429,235.644287 
	C354.846497,235.785751 354.961548,235.926407 355.076630,236.067062 
	C355.987335,243.991318 352.281616,250.544739 348.456329,256.894287 
	C346.919434,259.445343 344.517548,261.227936 340.694763,261.265198 
	C337.187683,261.299347 333.651001,263.150665 330.245239,264.499023 
	C329.588257,264.759125 329.476562,266.396362 329.113342,267.398346 
	C330.147217,267.693451 331.215912,268.319244 332.207764,268.214905 
	C334.280487,267.996918 336.315735,267.407440 338.360901,266.946228 
	C347.016296,264.994232 347.651947,265.578278 346.718384,274.660675 
	C306.217133,299.275421 253.128372,276.268524 241.413605,251.623337 
	C243.591995,248.423508 245.539566,245.562729 247.934036,242.045517 
	C251.109909,244.092438 255.195801,246.725891 259.281708,249.359344 
	C259.619843,249.117294 259.957977,248.875259 260.296112,248.633209 
	C259.717499,247.101959 259.575226,245.037048 258.478119,244.139999 
	C255.247894,241.498856 255.386673,238.480057 257.022888,235.379303 
	C258.882507,231.855194 261.178101,228.561157 263.978180,225.348633 
	C264.494629,226.804779 263.911560,228.182037 264.204010,229.337723 
	C266.459717,238.251465 275.882843,245.086441 285.205292,245.064819 
	C289.000122,245.056015 290.951538,242.809433 291.910004,239.868881 
	C293.941925,233.635208 292.082611,228.045059 288.067230,222.661835 
	C283.128082,226.797852 289.728119,230.949005 287.644165,234.785004 
	C283.900757,233.225693 278.761749,235.135590 277.001831,239.242523 
	C274.531830,235.842606 271.437195,232.995972 270.204620,229.493942 
	C268.940399,225.901993 267.170288,224.815002 263.843018,225.036194 
M315.497772,138.906403 
	C315.497772,138.906403 315.973755,138.762207 316.644379,138.953049 
	C317.820953,138.967682 318.997528,138.982300 320.231079,139.697174 
	C321.144867,139.733719 322.058685,139.770279 323.723114,139.968689 
	C324.485168,139.918610 325.247253,139.868530 326.533966,139.917252 
	C326.631165,139.616455 326.728394,139.315659 326.987915,138.247406 
	C323.672882,137.131805 320.357880,136.016220 317.364044,134.157318 
	C321.401642,133.823502 325.440155,133.500031 329.476227,133.148911 
	C330.549988,133.055496 331.616364,132.877274 332.686127,132.737976 
	C332.029541,131.798737 331.568909,130.499069 330.667938,130.009293 
	C329.476379,129.361511 327.926056,129.054245 326.554718,129.119690 
	C323.191620,129.280197 319.842682,129.738235 316.488068,130.076553 
	C318.362488,128.323502 320.497284,127.782799 322.525909,126.975288 
	C324.183899,126.315300 325.715179,125.336891 327.302643,124.499664 
	C317.798370,122.551537 305.797821,127.822281 305.373230,132.336243 
	C308.286499,133.575790 311.085541,134.766739 313.207062,136.234848 
	C311.853607,136.998383 310.078735,137.442062 309.216339,138.578308 
	C304.286926,145.073059 301.422424,145.737823 295.143311,141.334427 
	C298.281250,138.840988 299.470245,135.645264 296.772583,132.450043 
	C295.009766,130.362076 285.430542,132.325439 284.052734,134.676758 
	C281.189331,139.563293 285.629059,140.732101 288.270966,142.809158 
	C288.514984,143.001007 288.688721,143.282196 288.892273,143.524323 
	C283.240265,150.299820 279.436768,148.869110 275.848450,142.916779 
	C275.460022,142.272415 273.894928,142.337341 273.109131,141.385208 
	C276.495972,138.890274 274.483887,136.540390 272.058807,136.249146 
	C267.004669,135.642166 261.814941,135.983917 256.700012,136.273102 
	C255.994598,136.312988 255.397842,138.274185 254.329453,140.043732 
	C258.085449,140.043732 260.798218,140.043732 263.863068,140.043732 
	C260.751373,142.967422 254.690765,140.548355 253.877655,146.872513 
	C257.090118,146.575699 259.964264,146.310135 263.446411,145.988388 
	C261.055328,148.799362 259.278564,150.888138 257.501801,152.976913 
	C257.887634,153.424698 258.273468,153.872498 258.659302,154.320282 
	C260.046875,153.762863 261.763519,153.547577 262.762756,152.586426 
	C266.318970,149.165771 269.630981,145.491241 273.030609,142.756821 
	C272.441162,147.762527 274.539154,150.779556 279.478607,152.098999 
	C280.518799,152.376877 281.433380,153.866013 282.013123,154.998123 
	C284.487579,159.830276 286.116333,165.305328 289.451599,169.409943 
	C291.529663,171.967361 296.193207,173.818542 299.538116,173.596939 
	C303.667297,173.323380 307.052948,169.720322 307.861481,165.265762 
	C308.903290,159.526108 308.845123,153.566666 310.130493,147.899155 
	C310.864594,144.662521 313.327850,141.818069 315.497772,138.906403 
M280.351624,116.936028 
	C278.910461,116.300926 277.525848,115.408966 276.017944,115.077225 
	C270.773224,113.923378 265.149261,118.662956 266.156250,123.445358 
	C266.424194,124.717941 267.756805,125.766350 268.600616,126.917671 
	C269.727753,126.043282 271.066681,125.336830 271.927551,124.251282 
	C272.964905,122.943130 273.596313,121.313042 274.070984,120.436386 
	C277.115997,121.554482 280.243713,123.845604 281.943268,123.057365 
	C284.449615,121.894951 282.914948,119.133163 280.351624,116.936028 
M309.169495,112.011124 
	C304.892090,111.990776 300.846497,112.505600 300.107758,117.793961 
	C299.962708,118.832474 301.091766,120.048965 301.633209,121.183365 
	C302.600281,120.710114 304.078156,120.485870 304.450195,119.722580 
	C306.618805,115.273857 308.616241,116.760353 311.007629,119.509155 
	C311.757202,120.370773 313.208008,120.622375 314.337830,121.153198 
	C314.716614,119.423355 315.954315,117.148987 315.280640,116.086395 
	C314.163116,114.323692 311.816498,113.340210 309.169495,112.011124 
z"/>
<path fill="#000000" opacity="1.000000" stroke="none" 
	d="
M232.766083,264.247864 
	C243.409897,269.285889 253.764511,274.076508 264.119110,278.867096 
	C263.840240,279.559998 263.561340,280.252869 263.282471,280.945770 
	C254.452591,277.764435 245.522858,274.832275 236.816605,271.342590 
	C224.216888,266.292297 211.680969,261.574036 197.828552,260.836273 
	C187.826614,260.303589 177.843903,258.653320 167.969925,256.856689 
	C164.164291,256.164215 160.116592,254.340546 157.226349,251.827805 
	C154.742294,249.668182 152.570496,245.858505 152.395966,242.661880 
	C152.180511,238.715805 159.150314,233.317078 163.155487,233.018204 
	C171.882050,232.366989 180.392471,232.943634 188.162735,237.617706 
	C199.717468,244.568329 211.294769,251.481491 222.872620,258.393555 
	C226.055420,260.293701 229.274460,262.133148 232.766083,264.247864 
z"/>
<path fill="#000000" opacity="1.000000" stroke="none" 
	d="
M370.378235,108.868446 
	C369.923157,107.746918 369.857452,106.917397 369.612732,106.144554 
	C366.557465,96.496689 362.059082,95.501976 354.663361,102.884666 
	C352.906586,104.638321 351.335510,106.577965 349.728302,108.376846 
	C347.451965,107.399490 345.728790,106.659630 343.191345,105.570168 
	C348.253998,102.411369 352.472473,99.414536 357.012329,97.029312 
	C364.437622,93.128105 367.822479,94.929192 371.124634,102.733467 
	C374.935181,111.739342 375.392944,121.015694 374.849762,130.509552 
	C374.390259,130.640228 373.930725,130.770905 373.471222,130.901581 
	C372.630280,127.976288 371.377655,125.096672 371.046753,122.114777 
	C370.572906,117.844627 370.772430,113.499756 370.378235,108.868446 
z"/>
<path fill="#000000" opacity="1.000000" stroke="none" 
	d="
M246.887848,103.879967 
	C247.763947,99.239227 251.286102,99.305359 254.464493,100.272995 
	C259.401093,101.775925 264.132751,103.952126 269.317017,105.986458 
	C266.672882,108.787277 265.527252,112.054466 261.411072,107.443474 
	C258.268402,103.922997 253.286133,100.719093 247.200684,103.865585 
	C246.816925,103.816689 246.887848,103.879967 246.887848,103.879967 
z"/>
<path fill="#000000" opacity="1.000000" stroke="none" 
	d="
M246.784302,103.782135 
	C246.178421,107.205154 245.395065,110.644493 245.092819,114.125595 
	C244.808121,117.404922 244.343109,120.920753 245.201050,123.984253 
	C246.310547,127.945992 245.710022,130.895523 242.060928,134.369171 
	C242.013733,123.573898 241.103897,113.535248 246.560715,104.034332 
	C246.887848,103.879967 246.816925,103.816689 246.784302,103.782135 
z"/>
<path fill="#000000" opacity="1.000000" stroke="none" 
	d="
M354.579529,235.418732 
	C354.649994,234.636703 354.872345,234.081039 355.094696,233.525391 
	C355.393677,233.762894 355.692657,234.000397 355.991638,234.237915 
	C355.877563,234.778656 355.763458,235.319412 355.362976,235.963623 
	C354.961548,235.926407 354.846497,235.785751 354.579529,235.418732 
z"/>
<path fill="#F7FAFB" opacity="1.000000" stroke="none" 
	d="
M320.174103,138.996918 
	C318.997528,138.982300 317.820953,138.967682 316.212738,138.725098 
	C315.444702,138.331223 315.188538,138.431198 315.012543,138.797043 
	C313.327850,141.818069 310.864594,144.662521 310.130493,147.899155 
	C308.845123,153.566666 308.903290,159.526108 307.861481,165.265762 
	C307.052948,169.720322 303.667297,173.323380 299.538116,173.596939 
	C296.193207,173.818542 291.529663,171.967361 289.451599,169.409943 
	C286.116333,165.305328 284.487579,159.830276 282.013123,154.998123 
	C281.433380,153.866013 280.518799,152.376877 279.478607,152.098999 
	C274.539154,150.779556 272.441162,147.762527 272.996765,142.378616 
	C272.962952,142.000412 272.875641,142.073273 272.875641,142.073273 
	C273.894928,142.337341 275.460022,142.272415 275.848450,142.916779 
	C279.436768,148.869110 283.240265,150.299820 288.893677,143.523102 
	C288.688721,143.282196 288.514984,143.001007 288.270966,142.809158 
	C285.629059,140.732101 281.189331,139.563293 284.052734,134.676758 
	C285.430542,132.325439 295.009766,130.362076 296.772583,132.450043 
	C299.470245,135.645264 298.281250,138.840988 295.143311,141.334427 
	C301.422424,145.737823 304.286926,145.073059 309.216339,138.578308 
	C310.078735,137.442062 311.853607,136.998383 313.903381,136.104645 
	C315.414062,135.616501 316.228455,135.258560 317.042847,134.900620 
	C320.357880,136.016220 323.672882,137.131805 326.733398,138.723328 
	C326.262939,139.360565 326.106384,139.566956 326.009308,139.818451 
	C325.247253,139.868530 324.485168,139.918610 323.136261,139.670349 
	C321.757629,139.246994 320.965881,139.121948 320.174103,138.996918 
M291.399048,148.902527 
	C289.533447,150.087280 287.667877,151.272034 285.996307,152.333588 
	C287.394714,155.577011 288.598785,158.369766 289.423431,160.282425 
	C293.388214,156.431442 297.285217,152.646286 300.825623,149.207520 
	C299.465363,148.568207 297.281464,147.275772 294.921478,146.585129 
	C294.154785,146.360748 292.927551,147.710007 291.399048,148.902527 
z"/>
<path fill="#F6F9FB" opacity="1.000000" stroke="none" 
	d="
M263.884430,225.025848 
	C267.170288,224.815002 268.940399,225.901993 270.204620,229.493942 
	C271.437195,232.995972 274.531830,235.842606 277.001831,239.242523 
	C278.761749,235.135590 283.900757,233.225693 287.644165,234.785004 
	C289.728119,230.949005 283.128082,226.797852 288.067230,222.661835 
	C292.082611,228.045059 293.941925,233.635208 291.910004,239.868881 
	C290.951538,242.809433 289.000122,245.056015 285.205292,245.064819 
	C275.882843,245.086441 266.459717,238.251465 264.204010,229.337723 
	C263.911560,228.182037 264.494629,226.804779 264.314636,225.233093 
	C263.957062,224.936020 263.925842,225.015503 263.884430,225.025848 
z"/>
<path fill="#F6F9FB" opacity="1.000000" stroke="none" 
	d="
M272.999207,141.956635 
	C269.630981,145.491241 266.318970,149.165771 262.762756,152.586426 
	C261.763519,153.547577 260.046875,153.762863 258.659302,154.320282 
	C258.273468,153.872498 257.887634,153.424698 257.501801,152.976913 
	C259.278564,150.888138 261.055328,148.799362 263.446411,145.988388 
	C259.964264,146.310135 257.090118,146.575699 253.877655,146.872513 
	C254.690765,140.548355 260.751373,142.967422 263.863068,140.043732 
	C260.798218,140.043732 258.085449,140.043732 254.329453,140.043732 
	C255.397842,138.274185 255.994598,136.312988 256.700012,136.273102 
	C261.814941,135.983917 267.004669,135.642166 272.058807,136.249146 
	C274.483887,136.540390 276.495972,138.890274 272.992371,141.729248 
	C272.875641,142.073273 272.962952,142.000412 272.999207,141.956635 
z"/>
<path fill="#F4F8FA" opacity="1.000000" stroke="none" 
	d="
M317.203430,134.528961 
	C316.228455,135.258560 315.414062,135.616501 314.242126,135.966064 
	C311.085541,134.766739 308.286499,133.575790 305.373230,132.336243 
	C305.797821,127.822281 317.798370,122.551537 327.302643,124.499664 
	C325.715179,125.336891 324.183899,126.315300 322.525909,126.975288 
	C320.497284,127.782799 318.362488,128.323502 316.488068,130.076553 
	C319.842682,129.738235 323.191620,129.280197 326.554718,129.119690 
	C327.926056,129.054245 329.476379,129.361511 330.667938,130.009293 
	C331.568909,130.499069 332.029541,131.798737 332.686127,132.737976 
	C331.616364,132.877274 330.549988,133.055496 329.476227,133.148911 
	C325.440155,133.500031 321.401642,133.823502 317.203430,134.528961 
z"/>
<path fill="#F6F9FA" opacity="1.000000" stroke="none" 
	d="
M280.643494,117.206787 
	C282.914948,119.133163 284.449615,121.894951 281.943268,123.057365 
	C280.243713,123.845604 277.115997,121.554482 274.070984,120.436386 
	C273.596313,121.313042 272.964905,122.943130 271.927551,124.251282 
	C271.066681,125.336830 269.727753,126.043282 268.600616,126.917679 
	C267.756805,125.766350 266.424194,124.717941 266.156250,123.445358 
	C265.149261,118.662956 270.773224,113.923378 276.017944,115.077225 
	C277.525848,115.408966 278.910461,116.300926 280.643494,117.206787 
z"/>
<path fill="#F4F8F9" opacity="1.000000" stroke="none" 
	d="
M309.578552,112.019806 
	C311.816498,113.340210 314.163116,114.323692 315.280640,116.086395 
	C315.954315,117.148987 314.716614,119.423355 314.337830,121.153198 
	C313.208008,120.622375 311.757202,120.370773 311.007629,119.509155 
	C308.616241,116.760353 306.618805,115.273857 304.450195,119.722580 
	C304.078156,120.485870 302.600281,120.710114 301.633209,121.183365 
	C301.091766,120.048965 299.962708,118.832474 300.107758,117.793961 
	C300.846497,112.505600 304.892090,111.990776 309.578552,112.019806 
z"/>
<path fill="#F4F8FA" opacity="1.000000" stroke="none" 
	d="
M320.202576,139.347046 
	C320.965881,139.121948 321.757629,139.246994 322.760925,139.589417 
	C322.058685,139.770279 321.144867,139.733719 320.202576,139.347046 
z"/>
<path fill="#F4F8FA" opacity="1.000000" stroke="none" 
	d="
M315.255157,138.851715 
	C315.188538,138.431198 315.444702,138.331223 315.877441,138.629669 
	C315.973755,138.762207 315.497772,138.906403 315.255157,138.851715 
z"/>
<path fill="#F4F8FA" opacity="1.000000" stroke="none" 
	d="
M326.271637,139.867859 
	C326.106384,139.566956 326.262939,139.360565 326.652283,139.107071 
	C326.728394,139.315659 326.631165,139.616455 326.271637,139.867859 
z"/>
<path fill="#000000" opacity="1.000000" stroke="none" 
	d="
M291.654999,148.621017 
	C292.927551,147.710007 294.154785,146.360748 294.921478,146.585129 
	C297.281464,147.275772 299.465363,148.568207 300.825623,149.207520 
	C297.285217,152.646286 293.388214,156.431442 289.423431,160.282425 
	C288.598785,158.369766 287.394714,155.577011 285.996307,152.333588 
	C287.667877,151.272034 289.533447,150.087280 291.654999,148.621017 
z"/>
</svg>